# xmcd CD database file
#
# Track frame offsets:
#	150
#	12115
#	24141
#	36638
#	47861
#	58019
#	70517
#	82518
#	95597
#	106777
#	119558
#	131981
#	143520
#	155096
#	167049
#	178246
#	191258
#	205427
#
# Disc length: 2931 seconds
#
# Revision: 2
# Processed by: cddbd v1.5.2PL0 Copyright (c) Steve Scherf et al.
# Submitted via: CDex 1.77
#
DISCID=f30b7112
DTITLE=The Platters - Le Meilleur des Platters
DYEAR=1999
DGENRE=Blues
TTITLE0=Only You
TTITLE1=The Great Pretender
TTITLE2=Twilight Time
TTITLE3=You've Got the Magic Touch
TTITLE4=For the First Time
TTITLE5=My Prayer
TTITLE6=You'll Never Know
TTITLE7=One in a Million
TTITLE8=Summertime
TTITLE9=Remember When
TTITLE10=Mack the Knife
TTITLE11=Stormy Weather
TTITLE12=Six Teen Tons
TTITLE13=Smoke Gets in Your Eyes
TTITLE14=Bark, Battle and Ball
TTITLE15=I'm Sorry
TTITLE16=If I didn't Care
TTITLE17=Harbor Lights
EXTD=YEAR: 1999
EXTT0=
EXTT1=
EXTT2=
EXTT3=
EXTT4=
EXTT5=
EXTT6=
EXTT7=
EXTT8=
EXTT9=
EXTT10=
EXTT11=
EXTT12=
EXTT13=
EXTT14=
EXTT15=
EXTT16=
EXTT17=
PLAYORDER=
